<svg viewBox="-1250 0 4000 2400" xmlns="http://www.w3.org/2000/svg">
  <rect x="-1250" y="0" width="4000" height="2400" fill="#f8fafc" />

  <rect x="-1200" y="100" width="1400" height="2200" fill="#e2e8f0" stroke="#64748b" stroke-width="8" rx="12" />
  <text x="-500" y="1200" font-family="Arial" font-size="90" font-weight="bold" fill="#64748b" text-anchor="middle" letter-spacing="4">BAHÇE</text>

  <rect x="750" y="1800" width="1950" height="600" fill="#e2e8f0" stroke="#64748b" stroke-width="8" rx="12" />
  <text x="1725" y="2130" font-family="Arial" font-size="90" font-weight="bold" fill="#64748b" text-anchor="middle">Z23</text>

  <rect x="750" y="1300" width="1950" height="500" fill="#e2e8f0" stroke="#64748b" stroke-width="8" rx="12" />
  <text x="1725" y="1570" font-family="Arial" font-size="90" font-weight="bold" fill="#64748b" text-anchor="middle">Otonom Lab</text>

  <rect x="750" y="1089" width="600" height="211" fill="#e2e8f0" stroke="#64748b" stroke-width="8" rx="12" />
  <text x="1050" y="1215" font-family="Arial" font-size="60" font-weight="bold" fill="#64748b" text-anchor="middle">WC</text>

  <rect x="750" y="100" width="1950" height="989" fill="#e2e8f0" stroke="#64748b" stroke-width="8" rx="12" />
  <text x="1725" y="600" font-family="Arial" font-size="90" font-weight="bold" fill="#64748b" text-anchor="middle">Mikroişlemciler</text>

  <rect x="250" y="0" width="500" height="2400" fill="#ffffff" stroke="#94a3b8" stroke-width="4" />
  <line x1="500" y1="0" x2="500" y2="2400" stroke="#cbd5e1" stroke-width="8" stroke-dasharray="25,25" />
  <text x="500" y="1200" font-family="Arial" font-size="60" font-weight="bold" fill="#cbd5e1" text-anchor="middle" transform="rotate(-90 500 1200)">KORİDOR</text>

  <circle cx="500" cy="2400" r="22" fill="#ef4444" stroke="#ffffff" stroke-width="5" />
  <text x="420" y="2380" font-family="Arial" font-size="65" font-weight="bold" fill="#1e293b" text-anchor="end">Z23 (0.00m)</text>

  <circle cx="500" cy="1917" r="22" fill="#ef4444" stroke="#ffffff" stroke-width="5" />
  <text x="420" y="1935" font-family="Arial" font-size="65" font-weight="bold" fill="#1e293b" text-anchor="end">Kolon (4.83m)</text>

  <circle cx="500" cy="1411" r="22" fill="#ef4444" stroke="#ffffff" stroke-width="5" />
  <text x="420" y="1430" font-family="Arial" font-size="65" font-weight="bold" fill="#1e293b" text-anchor="end">Otonom Lab (9.89m)</text>

  <circle cx="500" cy="1089" r="22" fill="#ef4444" stroke="#ffffff" stroke-width="5" />
  <text x="420" y="1110" font-family="Arial" font-size="65" font-weight="bold" fill="#1e293b" text-anchor="end">Sebil Önü (13.11m)</text>

  <circle cx="500" cy="537" r="22" fill="#ef4444" stroke="#ffffff" stroke-width="5" />
  <text x="420" y="555" font-family="Arial" font-size="65" font-weight="bold" fill="#1e293b" text-anchor="end">Priz (18.63m)</text>

  <circle cx="500" cy="123" r="22" fill="#ef4444" stroke="#ffffff" stroke-width="5" />
  <text x="420" y="145" font-family="Arial" font-size="65" font-weight="bold" fill="#1e293b" text-anchor="end">Mikroişlemciler (22.77m)</text>

</svg>
